<svg width="7" height="31" viewBox="0 0 7 31" fill="none" xmlns="http://www.w3.org/2000/svg">
<path d="M3.31899 24.2295C5.25879 24.2298 6.73935 25.7573 6.73935 27.5897C6.73919 29.4729 5.2582 31 3.42036 31C1.53158 30.9999 0.000169277 29.422 0 27.5897C0 25.7572 1.58316 24.2295 3.31899 24.2295ZM6.38206 21.6843H0.357291V0H6.38206V21.6843Z" fill="#EBDA62"/>
<path d="M3.31899 24.2295C5.25879 24.2298 6.73935 25.7573 6.73935 27.5897C6.73919 29.4729 5.2582 31 3.42036 31C1.53158 30.9999 0.000169277 29.422 0 27.5897C0 25.7572 1.58316 24.2295 3.31899 24.2295ZM6.38206 21.6843H0.357291V0H6.38206V21.6843Z" stroke="#EBDA62"/>
</svg>
